<?xml version="1.0" standalone="no"?>
<!DOCTYPE svg PUBLIC "-//W3C//DTD SVG 20010904//EN"
 "http://www.w3.org/TR/2001/REC-SVG-20010904/DTD/svg10.dtd">
<svg version="1.0" xmlns="http://www.w3.org/2000/svg"
 width="500.000000pt" height="500.000000pt" viewBox="0 0 500.000000 500.000000"
 preserveAspectRatio="xMidYMid meet">

<g transform="translate(0.000000,500.000000) scale(0.100000,-0.100000)"
fill="#000000" stroke="none">
<path d="M3 3498 l2 -1503 30 -3 c17 -2 34 -10 38 -18 4 -8 19 -14 32 -14 18
0 25 7 30 30 4 16 3 34 0 40 -9 15 3 80 15 80 6 0 10 -9 10 -20 0 -11 9 -45
19 -75 l19 -54 -34 -21 c-18 -12 -47 -37 -63 -57 -23 -27 -36 -35 -65 -36
l-36 -1 0 -78 c0 -43 4 -86 9 -96 6 -9 13 -38 16 -65 3 -26 22 -77 40 -115 38
-74 40 -82 23 -82 -19 0 -47 -31 -41 -46 6 -16 -13 -19 -22 -4 -3 6 -10 10
-15 10 -6 0 -10 -255 -10 -636 0 -603 1 -636 17 -629 39 16 56 18 49 7 -4 -7
-1 -12 8 -12 9 0 16 9 16 20 0 14 7 20 23 20 18 -1 11 -11 -45 -64 -38 -35
-68 -66 -68 -69 0 -11 104 -5 118 5 8 7 12 7 12 -1 0 -26 44 -7 127 57 l90 69
-29 -59 c-45 -92 -33 -104 39 -37 25 22 47 39 49 36 3 -3 1 -21 -4 -41 -6 -20
-7 -36 -2 -36 4 0 13 22 20 49 6 27 18 58 26 68 14 16 15 13 9 -32 -3 -27 -8
-58 -11 -67 -3 -10 -1 -18 5 -18 9 0 23 66 25 122 1 33 11 34 78 10 32 -10 74
-38 113 -74 36 -33 72 -58 84 -58 32 0 -113 126 -162 141 -84 27 -28 40 147
34 126 -4 129 -5 212 -45 95 -46 106 -58 105 -112 0 -11 8 -18 20 -18 19 0 26
26 12 46 -5 5 4 -3 18 -18 14 -16 36 -28 49 -28 l24 0 -28 29 c-17 18 -24 31
-17 35 20 13 12 54 -15 75 -17 14 -21 21 -12 21 27 0 68 40 68 66 0 13 -9 33
-21 45 l-20 20 38 -7 c21 -4 70 -17 108 -30 105 -36 155 -28 155 22 0 24 1 24
28 9 46 -25 62 -42 71 -73 18 -62 -43 -125 -173 -180 l-81 -33 62 4 c101 8
209 79 234 154 30 93 -71 177 -261 218 -119 25 -337 23 -451 -4 -46 -11 -99
-23 -117 -26 -19 -4 -78 -26 -133 -50 -54 -24 -99 -40 -99 -35 0 18 66 72 110
92 25 11 74 34 110 51 55 27 77 31 140 32 41 0 84 -4 95 -9 19 -8 19 -8 2 10
-14 15 -31 18 -90 18 -75 -1 -78 -2 -240 -78 -44 -21 -81 -35 -84 -33 -2 3 5
38 18 79 15 51 22 102 23 171 l1 97 100 32 c55 17 161 53 235 79 l135 47 30
-61 c21 -44 43 -71 73 -92 41 -28 50 -30 130 -29 57 0 96 5 112 15 24 14 24
14 -25 17 -69 4 -111 25 -118 59 -15 80 13 121 160 235 156 121 191 160 245
268 45 89 75 191 106 360 8 43 10 6 8 -170 -3 -183 -7 -245 -25 -334 -21 -100
-60 -224 -80 -250 -24 -31 -45 -147 -46 -246 0 -91 3 -111 24 -150 30 -58 86
-116 136 -143 50 -25 168 -34 248 -17 66 13 75 30 18 30 -49 0 -107 33 -127
72 -9 17 -18 53 -21 82 l-5 51 79 -3 c73 -4 85 -1 141 27 44 22 73 46 102 84
43 58 80 152 79 201 l-1 31 -13 -31 c-15 -34 -75 -91 -109 -103 -52 -20 -121
-22 -156 -4 -45 23 -44 44 4 177 20 55 43 137 51 184 28 158 14 458 -29 646
-9 38 -15 71 -13 73 2 2 15 -5 28 -16 28 -22 118 -68 168 -86 20 -7 97 -39
171 -70 74 -31 167 -68 205 -82 83 -30 81 -29 66 -47 -17 -20 -40 -169 -48
-307 -6 -110 -5 -119 19 -171 15 -32 40 -66 60 -82 52 -39 55 -32 9 20 -38 43
-69 109 -58 121 3 3 45 -17 94 -45 48 -27 110 -58 137 -68 27 -10 43 -20 35
-22 -8 -3 -17 -10 -21 -16 -11 -16 -10 -94 1 -101 6 -3 26 -32 45 -64 36 -58
65 -148 70 -218 3 -38 28 -192 46 -288 5 -27 13 -96 16 -153 6 -90 22 -147 37
-132 8 8 -19 215 -68 526 -25 155 -36 191 -86 279 -77 133 -61 173 49 119 82
-40 134 -93 170 -172 46 -100 50 -146 18 -210 -26 -52 -34 -120 -16 -138 13
-13 14 -157 3 -284 -5 -58 -6 -109 -1 -115 4 -5 8 6 8 25 0 19 4 59 10 89 5
31 12 77 16 103 4 42 10 51 47 75 68 45 163 93 188 94 51 3 126 -49 270 -188
53 -50 82 -71 93 -67 17 6 13 24 -6 24 -5 0 -53 40 -106 88 -54 49 -119 104
-147 122 -27 18 -62 41 -76 51 -25 17 -27 16 -70 -13 -24 -16 -79 -47 -122
-69 -67 -33 -79 -36 -84 -22 -10 26 34 96 95 149 87 76 127 104 148 104 20 0
184 -108 281 -185 74 -59 98 -103 122 -230 31 -157 30 -155 42 -155 8 0 9 13
4 38 -4 20 -16 82 -26 137 -11 55 -26 142 -33 193 -14 95 -40 146 -88 175 -43
26 -88 185 -88 309 0 26 2 27 44 23 50 -5 238 -70 306 -106 24 -13 77 -54 117
-92 95 -90 179 -215 107 -158 -60 47 -270 95 -368 84 -104 -12 -115 -44 -32
-99 66 -43 99 -89 121 -167 14 -48 23 -62 56 -82 43 -28 60 -30 92 -14 18 9
20 9 10 -2 -16 -17 -16 -77 0 -106 24 -43 77 -73 128 -73 66 0 91 32 109 134
7 42 16 76 20 76 7 0 69 -156 90 -228 l13 -42 233 0 c204 0 233 2 228 15 -8
20 13 45 37 45 18 0 19 17 19 465 l0 466 -37 -7 -38 -6 37 31 36 31 1 779 c2
744 1 779 -16 775 -12 -3 -41 16 -85 55 -37 33 -76 62 -87 66 -21 6 -96 -25
-144 -59 -40 -29 -49 -13 -36 64 16 95 13 118 -25 203 -20 42 -33 77 -31 77 2
0 -11 27 -30 59 -19 33 -32 66 -29 74 10 28 56 39 108 26 35 -9 53 -9 69 -1
12 7 29 11 37 9 23 -3 109 43 121 64 5 11 18 19 27 19 10 0 41 17 69 38 l52
37 1 837 0 837 -350 1 c-192 0 -350 -2 -350 -4 0 -18 26 -56 37 -56 10 0 13
-9 11 -27 -2 -22 -8 -28 -29 -28 -14 -1 -38 -11 -54 -23 -31 -25 -60 -28 -72
-9 -12 20 -42 110 -43 130 0 22 -56 24 -81 1 -16 -14 -20 -14 -48 1 -17 8 -31
12 -31 7 0 -4 24 -37 53 -72 68 -83 90 -126 77 -151 -14 -24 -81 -42 -155 -41
-89 2 -109 9 -130 45 -10 18 -50 76 -89 129 -64 88 -74 97 -103 98 -18 0 -33
-4 -33 -9 0 -11 83 -126 118 -163 14 -15 23 -30 20 -33 -2 -3 -74 11 -159 30
-103 24 -175 35 -219 34 -36 -1 -96 2 -133 6 -59 7 -72 5 -95 -11 -24 -18 -42
-19 -167 -17 -135 3 -174 6 -277 19 -40 5 -57 1 -111 -25 -35 -17 -76 -31 -90
-31 -15 0 -44 -7 -64 -15 -21 -8 -65 -19 -97 -25 -48 -8 -66 -17 -90 -44 -33
-36 -43 -40 -126 -55 -30 -5 -64 -13 -74 -17 -18 -7 -18 -6 -3 22 21 40 66
147 134 322 4 8 -7 12 -35 12 l-39 0 -33 -87 c-57 -153 -144 -326 -177 -354
-20 -16 -57 -31 -113 -43 -65 -14 -90 -24 -113 -47 -53 -53 -82 -63 -187 -60
-95 2 -95 2 -163 -39 -62 -38 -70 -40 -94 -28 -64 31 -96 131 -73 222 8 28 14
58 15 66 0 8 13 33 28 55 39 58 33 67 -13 16 -53 -56 -81 -106 -123 -216 -45
-114 -52 -161 -32 -199 20 -37 20 -35 -20 -52 -46 -19 -46 -19 -30 25 17 49
23 119 10 123 -5 2 -13 -15 -16 -37 -4 -23 -14 -56 -23 -75 l-16 -35 5 35 c26
168 36 306 33 449 -3 150 -4 162 -25 183 -21 20 -24 21 -40 5 -19 -17 -52 -79
-101 -187 -16 -36 -38 -76 -50 -90 l-20 -25 -41 89 -41 89 24 31 c42 55 132
144 167 165 l34 21 -437 0 -438 0 3 -1502z m4815 1420 c28 -23 13 -38 -38 -38
-43 0 -50 3 -50 20 0 36 51 47 88 18z m-1348 -122 c19 -8 58 -34 86 -58 29
-24 87 -68 129 -98 70 -50 195 -172 195 -190 0 -4 -30 4 -67 17 -91 33 -226
42 -270 19 -38 -19 -119 -22 -126 -3 -11 32 -215 0 -270 -43 -14 -11 -28 -16
-32 -11 -3 6 -11 57 -17 115 l-12 106 33 68 c46 95 59 102 201 97 71 -2 128
-10 150 -19z m1234 -1 c3 -10 -1 -15 -12 -16 -9 0 -2 -5 16 -10 35 -10 42 -26
15 -31 -11 -2 -18 -13 -18 -28 0 -23 -3 -25 -41 -22 -30 1 -43 -2 -48 -13 -3
-8 -12 -15 -20 -15 -7 0 -16 -7 -20 -15 -3 -8 -16 -15 -30 -15 -14 0 -28 -4
-31 -10 -3 -5 -18 -10 -32 -10 -20 0 -24 4 -20 20 6 25 0 25 -38 0 -39 -26
-59 -25 -77 2 -14 21 -14 21 -36 -16 -19 -32 -25 -35 -41 -26 -29 15 -33 27
-21 51 9 17 18 20 41 15 24 -5 29 -2 29 15 0 17 4 19 23 13 12 -4 25 -12 29
-17 11 -18 47 21 41 44 -4 14 0 19 13 19 33 0 89 24 123 53 27 23 42 27 91 27
42 0 59 -4 64 -15z m-1911 -28 c59 -31 92 -96 101 -196 3 -42 11 -120 18 -174
6 -53 9 -99 6 -102 -3 -3 -18 1 -34 10 -37 19 -114 19 -185 1 -52 -14 -182
-77 -240 -118 -26 -17 -27 -17 -33 5 -3 12 -6 78 -6 146 0 126 18 219 58 296
27 53 113 145 136 145 12 0 28 5 36 10 21 15 93 3 143 -23z m-1846 -69 c-3 -7
-5 -2 -5 12 0 14 2 19 5 13 2 -7 2 -19 0 -25z m1496 18 c21 -16 22 -44 2 -70
-8 -11 -15 -31 -15 -45 0 -14 -11 -49 -24 -76 -13 -28 -28 -87 -35 -130 -9
-66 -30 -378 -31 -462 0 -51 -106 -132 -172 -133 -60 0 -69 67 -48 365 18 247
19 275 10 275 -12 0 -15 -14 -80 -325 -43 -207 -39 -195 -65 -185 -12 5 -64
16 -115 26 -124 22 -259 16 -301 -15 -15 -11 -31 -21 -34 -21 -11 0 -5 104 10
159 21 82 100 285 133 344 l29 52 63 3 c71 3 95 -9 64 -33 -10 -8 -29 -14 -41
-11 -13 2 -23 -2 -23 -8 0 -22 24 -36 61 -36 30 0 43 7 68 35 17 20 42 57 55
83 30 58 61 77 153 91 93 14 114 23 149 61 38 41 60 53 114 61 25 3 47 7 50 7
3 1 13 -5 23 -12z m1423 -50 c41 -19 121 -69 178 -110 100 -73 272 -233 261
-244 -3 -3 -20 3 -38 12 -27 15 -39 16 -71 8 -54 -15 -104 -52 -118 -87 -20
-50 -47 -84 -83 -101 -44 -20 -100 -12 -116 18 -14 26 -6 94 14 116 8 9 24 34
35 56 17 31 19 43 9 65 -13 30 -78 123 -117 166 -21 23 -60 109 -60 132 0 11
41 -1 106 -31z m949 14 c3 -5 -1 -10 -10 -10 -9 0 -13 5 -10 10 3 6 8 10 10
10 2 0 7 -4 10 -10z m-644 -76 c14 -13 29 -24 33 -24 9 0 65 -41 135 -100 49
-41 97 -93 216 -234 40 -47 115 -164 115 -178 0 -5 -24 1 -52 12 -86 33 -206
21 -220 -21 -2 -7 -17 11 -32 41 l-27 52 25 27 c14 15 26 37 26 49 0 38 -67
128 -155 209 -58 53 -99 100 -126 146 -21 38 -39 70 -39 72 0 10 78 -30 101
-51z m-676 -188 c33 0 84 4 112 9 47 7 57 5 90 -17 40 -27 122 -153 153 -237
20 -53 47 -71 109 -71 32 0 58 9 94 31 27 17 53 27 57 22 14 -15 99 -231 115
-294 9 -34 32 -138 52 -233 49 -233 45 -345 -18 -483 -40 -90 -53 -83 -46 25
12 191 -22 676 -49 701 -7 6 1 -108 16 -229 12 -102 12 -337 -1 -440 -12 -101
-54 -230 -99 -304 -18 -29 -61 -84 -96 -122 l-63 -69 14 50 c69 231 94 361
110 565 5 71 -11 197 -46 362 -16 71 -27 58 -21 -25 6 -101 -13 -263 -39 -325
-12 -28 -25 -50 -29 -47 -4 2 -13 66 -20 142 -19 211 -45 368 -95 561 -33 132
-60 200 -92 234 -36 37 -40 29 -8 -17 53 -79 98 -284 99 -451 1 -97 -2 -115
-18 -133 l-19 -21 -50 92 c-27 51 -64 131 -83 178 -19 47 -59 123 -89 170 -30
47 -71 118 -90 157 -20 40 -40 75 -45 78 -4 3 10 -47 31 -110 67 -194 81 -477
34 -634 -18 -59 -44 -105 -54 -96 -7 8 -25 110 -46 270 -27 201 -59 350 -74
341 -4 -3 -11 -61 -14 -128 -4 -68 -9 -139 -12 -158 -39 -242 -66 -319 -145
-402 -57 -61 -65 -45 -63 114 1 73 4 228 5 345 l3 211 54 7 c42 5 61 14 84 37
l30 29 -6 92 c-4 51 -13 115 -21 144 -11 42 -12 54 -1 63 20 16 124 29 180 22
28 -4 77 -7 110 -6z m-1962 -76 c15 0 27 -1 27 -3 0 -25 -60 -199 -98 -282
-58 -129 -96 -261 -113 -395 -7 -52 -14 -97 -16 -99 -5 -7 -43 36 -43 48 0 6
-19 20 -42 32 -56 29 -126 21 -185 -21 l-43 -30 0 33 c0 35 38 198 72 312 12
38 45 120 74 181 77 161 133 211 274 247 8 2 26 -2 40 -10 14 -7 37 -13 53
-13z m1342 -96 c11 -4 15 -21 15 -59 0 -93 41 -155 102 -155 35 0 36 -18 8
-152 -26 -124 -64 -228 -101 -272 -5 -6 -23 -30 -39 -53 -37 -53 -60 -56 -60
-9 0 19 -5 36 -12 38 -8 3 -7 21 5 69 8 35 19 87 22 114 4 28 13 77 21 110 16
70 19 185 4 185 -5 0 -10 -17 -10 -37 0 -65 -41 -298 -65 -377 -11 -34 -13
-13 -14 160 0 109 -6 226 -11 259 -6 33 -13 88 -17 122 -5 58 -4 62 18 66 26
6 111 0 134 -9z m-188 -71 c-7 -74 -57 -257 -101 -368 -65 -160 -133 -276
-197 -329 -34 -29 -61 -25 -55 8 2 11 12 66 21 121 16 90 37 162 69 235 6 14
27 44 47 66 38 43 41 53 52 204 2 31 9 38 81 82 44 26 82 48 84 48 3 0 2 -30
-1 -67z m-2507 41 c0 -9 -5 -14 -12 -12 -18 6 -21 28 -4 28 9 0 16 -7 16 -16z
m865 -21 c-38 -58 -88 -113 -121 -133 l-35 -20 7 22 c19 65 44 95 101 126 32
17 60 32 62 32 2 0 -5 -12 -14 -27z m53 -91 c-37 -179 -99 -426 -128 -507 -16
-44 -37 -109 -46 -144 -16 -57 -19 -62 -28 -42 -24 53 -150 88 -261 71 -49 -7
-52 -5 -31 26 8 11 31 61 51 110 59 146 191 343 277 414 74 63 96 87 131 145
22 37 31 45 41 36 11 -10 10 -28 -6 -109z m1622 -116 c14 -123 8 -394 -11
-536 -14 -102 -40 -176 -59 -171 -62 18 -220 7 -337 -25 -70 -19 -80 -18 -49
7 24 19 137 160 210 263 69 97 216 476 216 557 0 10 4 19 8 19 5 0 15 -51 22
-114z m833 -31 c74 -147 166 -459 143 -482 -6 -7 -198 -35 -202 -30 -2 2 4 52
12 113 26 175 28 265 9 372 -9 53 -21 110 -26 127 -17 52 7 15 64 -100z
m-3173 35 c0 -15 7 -46 15 -69 l14 -41 -39 0 c-22 0 -40 5 -40 10 0 6 5 10 10
10 16 0 12 15 -15 55 -29 42 -26 53 10 37 14 -6 25 -8 25 -3 0 5 -7 12 -16 15
-22 8 -8 25 16 19 14 -4 20 -14 20 -33z m2955 -295 c24 -244 13 -463 -28 -583
-18 -50 -3 -48 42 8 42 52 74 119 101 207 l21 71 68 17 c38 9 90 17 117 18
l49 2 8 -87 c4 -48 4 -102 -1 -120 -8 -32 -9 -33 -73 -35 -121 -6 -259 -67
-259 -115 0 -7 10 -1 23 13 29 34 99 69 134 68 25 -1 24 -2 -7 -8 -45 -9 -90
-36 -113 -67 -38 -52 -29 -221 13 -259 11 -10 20 -24 20 -31 0 -20 64 -36 117
-29 65 10 128 42 158 81 34 45 31 64 -4 30 l-29 -28 15 43 c19 57 12 147 -16
195 -12 19 -21 37 -21 40 0 2 17 4 37 4 28 0 45 -8 70 -32 25 -24 33 -28 33
-15 0 9 4 17 10 17 6 0 8 -41 5 -107 -3 -60 -7 -166 -9 -238 l-5 -130 -83 -78
-83 -78 75 40 c41 23 78 41 81 41 8 0 -10 -137 -27 -204 -9 -33 -31 -89 -49
-126 -36 -72 -133 -206 -183 -253 -30 -29 -31 -29 -163 -29 -73 0 -138 -2
-144 -4 -9 -4 -11 -39 -7 -127 l5 -123 -57 -51 c-62 -57 -184 -123 -227 -123
-56 0 -268 63 -428 126 -318 127 -494 222 -508 273 -3 14 -28 71 -55 129 -27
57 -47 106 -45 108 3 3 15 -8 28 -23 33 -38 100 -90 134 -103 26 -10 27 -9 14
7 -8 9 -33 37 -57 62 -28 30 -68 96 -112 185 -65 130 -128 292 -118 302 3 2
22 -28 43 -68 20 -40 49 -88 62 -106 36 -48 143 -155 180 -180 50 -35 62 -25
17 16 -128 117 -238 387 -250 614 l-6 113 84 81 c50 49 97 86 118 93 33 10 34
10 15 -5 -11 -8 -26 -19 -33 -23 -7 -4 -10 -15 -6 -24 5 -14 14 -10 56 25 70
60 83 69 120 79 18 4 69 17 113 29 49 13 130 23 208 27 l128 6 -7 -29 c-7 -28
-6 -29 13 -11 11 9 25 17 32 17 7 0 11 6 8 14 -3 8 15 38 41 67 94 107 167
215 204 304 22 49 43 98 48 107 5 9 16 47 25 83 28 124 37 111 31 -45 -5 -136
-42 -397 -67 -480 -17 -56 -71 -182 -93 -215 -10 -16 -33 -45 -50 -62 -47 -52
-16 -39 61 25 64 52 110 103 214 232 51 64 106 180 134 285 28 101 54 268 56
347 l1 53 9 -45 c5 -25 16 -117 24 -205z m-1344 161 c26 -10 55 -26 65 -37 17
-19 16 -24 -14 -133 -17 -62 -62 -192 -101 -289 -69 -175 -113 -309 -116 -357
-1 -14 -3 -67 -3 -119 l-2 -93 -22 14 c-34 23 -57 121 -68 297 -10 162 2 298
36 394 16 46 16 47 7 47 -21 0 -47 -77 -66 -193 -19 -118 -20 -141 -10 -295
13 -186 44 -398 75 -512 33 -121 33 -121 11 -113 -43 17 -122 99 -143 148 -29
67 -59 233 -70 385 -12 163 -28 219 -29 103 -2 -170 -22 -334 -48 -400 -26
-66 -83 -127 -126 -135 -21 -4 -21 -3 8 55 27 56 30 69 32 193 2 72 7 151 12
175 46 219 61 301 75 408 15 111 20 128 46 158 42 47 55 75 85 188 41 151 24
138 184 132 90 -3 152 -10 182 -21z m-1575 3 c10 -17 -17 -29 -61 -27 -47 3
-53 20 -10 29 47 10 63 10 71 -2z m29 -39 c8 -13 -6 -18 -82 -28 -50 -7 -63
-6 -63 4 0 14 18 20 75 27 57 7 64 7 70 -3z m247 -68 c-22 -39 -43 -81 -47
-94 -12 -39 -75 -154 -75 -137 0 31 21 135 38 188 14 45 25 59 66 87 28 18 52
32 54 30 2 -2 -14 -36 -36 -74z m-238 28 c-10 -4 -59 -10 -109 -13 l-90 -6
100 18 c94 16 143 17 99 1z m26 -15 c0 -2 -18 -41 -40 -86 -22 -45 -37 -85
-34 -90 3 -5 1 -9 -5 -9 -14 0 -32 -38 -76 -160 -53 -148 -65 -194 -74 -284
-8 -78 -8 -80 25 -137 19 -31 46 -66 60 -77 l27 -19 -28 -72 c-16 -40 -32 -74
-35 -76 -4 -2 -13 14 -20 36 -8 23 -20 43 -26 46 -7 3 -18 30 -24 61 -7 32
-16 65 -21 74 -5 10 -9 40 -9 67 0 52 -14 101 -31 112 -6 3 -14 21 -18 40 -4
19 -11 44 -15 55 -5 16 -2 23 14 27 19 5 27 40 21 101 -3 36 37 231 58 279 12
27 21 57 21 67 0 23 19 30 93 31 34 1 76 5 92 9 40 10 45 11 45 5z m1840 2 c0
-2 -16 -52 -36 -112 -56 -173 -112 -279 -191 -358 -70 -71 -103 -88 -129 -66
-22 18 -10 119 26 224 16 44 43 121 61 172 l32 92 46 7 c25 3 75 14 111 24 72
20 80 21 80 17z m2 -135 c-128 -330 -176 -427 -219 -435 -28 -5 -29 0 -4 27
32 35 177 317 207 404 11 29 20 48 22 42 2 -6 -1 -23 -6 -38z m1522 -69 c5
-71 4 -83 -9 -83 -10 0 -15 10 -15 33 0 36 12 139 15 135 1 -2 5 -40 9 -85z
m-2584 37 c14 -15 33 -40 43 -54 20 -29 58 -42 84 -31 53 23 53 22 53 -88 0
-127 -49 -417 -70 -417 -4 0 -11 28 -16 63 -7 57 -8 59 -12 22 -2 -21 2 -57 8
-80 10 -37 9 -48 -19 -119 -17 -42 -29 -82 -26 -87 4 -5 3 -9 -2 -9 -4 0 -9
-12 -10 -26 0 -15 -7 -30 -15 -35 -7 -5 -9 -9 -4 -9 6 0 3 -6 -6 -12 -9 -7
-28 -42 -43 -77 -14 -35 -41 -93 -60 -130 -18 -36 -48 -102 -65 -146 -18 -44
-35 -84 -39 -90 -16 -21 -153 -327 -176 -393 -56 -161 -105 -425 -105 -569 0
-113 19 -260 41 -316 11 -27 18 -51 16 -53 -7 -7 -135 95 -156 125 -39 54 -81
163 -96 245 -19 110 -37 176 -47 170 -4 -3 -8 1 -8 7 0 18 -104 188 -138 226
-16 18 -32 30 -36 28 -3 -3 -4 -2 -1 2 3 3 -1 13 -9 22 -32 37 -110 159 -128
201 -23 53 -48 185 -48 255 0 104 77 358 186 612 8 17 14 36 14 42 0 9 5 9 20
1 37 -20 213 -81 218 -76 6 7 -76 43 -138 62 -85 26 -86 27 -49 129 17 50 36
94 40 99 6 6 26 2 54 -12 25 -12 61 -22 80 -22 l35 0 2 -77 2 -78 3 79 c3 67
7 79 23 83 27 7 40 52 29 108 -10 56 -5 102 23 208 19 69 23 77 45 77 30 0 92
-31 118 -60 15 -17 20 -37 21 -103 2 -108 5 -119 34 -138 59 -37 133 -24 167
28 16 24 18 53 18 232 l0 205 25 7 c43 13 93 0 120 -31z m2586 -282 c-2 -73
-5 -148 -5 -165 0 -25 -5 -33 -19 -33 -30 0 -33 11 -9 32 14 12 17 18 7 16 -8
-1 -35 5 -59 15 -37 15 -41 20 -28 30 14 11 55 129 72 205 5 23 12 32 27 32
19 0 19 -5 14 -132z m546 -27 c44 -49 82 -64 155 -59 34 2 63 1 63 -2 0 -3
-19 -18 -42 -33 -55 -36 -103 -36 -151 1 -57 43 -77 76 -83 134 l-5 53 18 -32
c10 -17 30 -45 45 -62z m-34 -102 c-2 -6 -8 -10 -13 -10 -5 0 -11 4 -13 10 -2
6 4 11 13 11 9 0 15 -5 13 -11z m-761 -25 c-3 -3 -12 -4 -19 -1 -8 3 -5 6 6 6
11 1 17 -2 13 -5z m93 -124 c17 -33 12 -122 -10 -158 -22 -36 -75 -72 -105
-71 -13 0 -8 5 17 15 47 20 83 95 75 162 -6 57 -17 67 -56 54 -41 -14 -40 0 2
20 35 17 60 10 77 -22z m-70 -120 c0 -6 -11 -22 -25 -35 -35 -36 -96 -35 -120
1 -21 32 -15 41 10 14 26 -29 80 -27 108 4 26 29 27 29 27 16z m719 -115 c92
-81 278 -266 315 -314 100 -130 211 -330 257 -461 14 -41 24 -98 27 -155 l4
-90 -36 34 c-34 33 -36 38 -36 99 0 73 -17 81 -35 16 l-11 -39 -124 4 c-77 2
-135 8 -151 17 -14 7 -52 41 -84 76 -72 77 -115 168 -154 326 -36 145 -49 272
-43 424 5 131 -1 126 71 63z m-144 -212 c19 -299 68 -464 188 -626 40 -53 93
-125 118 -159 125 -170 166 -336 119 -473 -31 -90 -61 -132 -168 -239 -84 -83
-101 -95 -106 -79 -10 32 12 170 38 236 73 182 67 261 -29 434 -123 219 -167
354 -196 597 -12 103 -8 396 6 430 8 19 9 18 16 -1 4 -12 10 -65 14 -120z
m-90 25 c-16 -212 -4 -405 41 -647 6 -35 45 -150 69 -206 26 -60 84 -253 95
-318 19 -109 1 -208 -60 -327 l-23 -45 -14 58 c-7 32 -56 145 -108 250 -140
282 -158 376 -149 757 7 291 24 464 52 506 7 12 92 74 100 74 2 0 1 -46 -3
-102z m-164 -56 c-6 -28 -22 -146 -36 -263 -14 -118 -28 -222 -31 -232 -3 -9
-6 -81 -6 -160 0 -129 3 -156 37 -302 51 -216 53 -324 10 -405 l-29 -55 -7 47
c-10 66 -37 143 -70 203 -77 139 -124 360 -116 546 4 123 1 112 80 239 32 51
57 138 76 266 10 69 20 126 22 128 13 12 74 45 77 41 2 -2 -1 -26 -7 -53z
m-2455 6 c1 -13 6 -84 12 -158 10 -128 9 -386 -3 -495 -17 -155 -62 -316 -112
-397 -42 -67 -163 -187 -249 -245 -32 -22 -99 -61 -149 -86 -49 -25 -105 -57
-124 -71 -19 -14 -36 -24 -38 -22 -2 2 -8 29 -13 60 -8 51 -6 65 16 120 23 58
114 183 247 340 83 99 125 174 162 288 55 168 62 216 71 451 l7 167 31 0 c36
0 105 30 125 53 17 21 16 21 17 -5z m322 -347 c83 -85 99 -108 127 -188 13
-38 38 -104 55 -148 36 -91 77 -316 86 -470 10 -177 -7 -313 -61 -471 -44
-132 -121 -294 -170 -359 -12 -16 -26 -41 -30 -55 -8 -28 -33 -60 -47 -60 -5
0 -21 26 -36 58 -35 77 -43 224 -17 316 33 115 45 146 80 215 100 200 144 354
145 508 0 114 -26 316 -45 352 -17 31 -19 19 -5 -29 6 -19 15 -103 21 -186 9
-131 8 -160 -6 -215 -20 -75 -44 -125 -55 -113 -8 9 -17 178 -28 526 -5 122
-11 201 -18 208 -8 8 -13 -18 -18 -97 -4 -59 -11 -133 -16 -163 -6 -30 -19
-111 -30 -178 -54 -333 -151 -503 -370 -653 -95 -64 -127 -94 -151 -142 -44
-85 -83 -3 -60 127 15 92 49 164 114 245 216 268 283 393 342 636 18 78 35
274 35 415 l0 112 48 -63 c26 -35 75 -93 110 -128z m3132 110 c0 -11 -4 -23
-10 -26 -6 -4 -10 5 -10 19 0 14 5 26 10 26 6 0 10 -9 10 -19z m-69 -31 c14 0
10 -42 -5 -63 -12 -16 -15 -13 -36 29 -16 36 -19 49 -9 55 7 4 19 1 26 -7 8
-8 19 -14 24 -14z m14 -100 c3 -5 1 -10 -4 -10 -6 0 -11 5 -11 10 0 6 2 10 4
10 3 0 8 -4 11 -10z m-1318 -262 c-3 -8 -6 -5 -6 6 -1 11 2 17 5 13 3 -3 4
-12 1 -19z m-25 -10 c-5 -7 -12 -24 -15 -38 l-4 -25 -2 26 c0 14 4 30 11 37
16 16 23 15 10 0z m-3304 -89 l53 -91 -28 -66 c-37 -88 -39 -220 -5 -294 l21
-47 -57 30 c-72 39 -103 68 -135 127 -72 134 -52 276 55 397 16 19 33 35 37
35 3 0 30 -41 59 -91z m3079 -1 c-2 -13 -4 -3 -4 22 0 25 2 35 4 23 2 -13 2
-33 0 -45z m297 -238 c14 -50 14 -56 -1 -73 -17 -18 -17 -18 -25 2 -13 36 -21
225 -12 287 l8 59 7 -110 c4 -60 14 -135 23 -165z m1112 200 c36 0 59 6 77 20
38 30 47 26 34 -16 -12 -40 -68 -94 -98 -94 -35 0 -147 79 -170 121 -7 14 2
12 49 -7 34 -14 78 -24 108 -24z m-1459 -42 c-2 -13 -4 -3 -4 22 0 25 2 35 4
23 2 -13 2 -33 0 -45z m280 -20 c-3 -8 -6 -5 -6 6 -1 11 2 17 5 13 3 -3 4 -12
1 -19z m1186 -55 c36 -4 48 -1 74 21 34 29 63 34 63 11 0 -8 -5 -15 -10 -15
-6 0 -33 -22 -60 -50 -39 -38 -50 -56 -50 -81 0 -24 -9 -41 -37 -67 l-37 -35
-12 69 c-6 38 -21 96 -33 129 -11 32 -21 61 -21 62 0 1 18 -7 41 -18 22 -12
59 -24 82 -26z m-1216 -80 c-2 -16 -4 -3 -4 27 0 30 2 43 4 28 2 -16 2 -40 0
-55z m-297 -157 c0 -95 3 -200 6 -232 6 -58 5 -61 -31 -104 -47 -57 -103 -90
-174 -105 -88 -18 -145 8 -66 30 77 22 142 103 171 215 9 34 14 104 14 186 l0
132 31 26 c17 14 35 26 40 26 5 0 9 -74 9 -174z m-2741 86 c42 -86 39 -108
-12 -105 -51 3 -87 -12 -87 -36 0 -24 -37 -48 -52 -33 -19 19 -19 95 -1 147
16 44 22 50 53 56 19 4 39 15 45 23 5 9 12 16 16 16 3 0 20 -31 38 -68z m3857
0 c-6 -6 -26 43 -25 61 0 7 7 -3 15 -22 8 -18 13 -36 10 -39z m-624 -40 c-2
-15 -8 -31 -12 -37 -21 -29 -47 -209 -56 -385 -7 -149 16 -391 42 -442 23 -44
17 -42 -48 17 -35 31 -82 71 -106 88 l-43 32 6 140 c11 246 46 461 89 544 16
29 60 72 91 89 26 15 44 -7 37 -46z m-1009 8 c-3 -12 -8 -19 -11 -16 -5 6 5
36 12 36 2 0 2 -9 -1 -20z m280 -42 c3 -13 9 -46 12 -74 7 -47 5 -52 -22 -75
-17 -14 -33 -32 -36 -40 -3 -8 -6 37 -6 99 -1 112 -1 112 23 112 16 0 26 -7
29 -22z m524 -45 c-2 -16 -4 -5 -4 22 0 28 2 40 4 28 2 -13 2 -35 0 -50z
m-600 0 c-3 -10 -5 -2 -5 17 0 19 2 27 5 18 2 -10 2 -26 0 -35z m330 5 c-3 -7
-5 -2 -5 12 0 14 2 19 5 13 2 -7 2 -19 0 -25z m822 -41 c28 -50 27 -57 -9 -57
-30 0 -30 0 -30 57 0 61 5 61 39 0z m-331 -88 c-25 -16 -41 -10 -34 14 3 12 6
31 6 42 0 16 5 13 21 -14 16 -27 18 -36 7 -42z m-3380 -1 c-3 -7 -11 -13 -18
-13 -7 0 -15 6 -17 13 -3 7 4 12 17 12 13 0 20 -5 18 -12z m3761 -47 c14 -54
7 -114 -15 -132 -8 -6 -14 -17 -14 -24 0 -13 -110 -45 -156 -45 l-27 0 37 43
c45 51 86 137 86 177 0 28 3 30 38 30 37 0 39 -1 51 -49z m-346 6 c26 -39 30
-83 12 -122 -10 -19 -20 -35 -23 -35 -3 0 -21 10 -39 23 -30 20 -33 26 -33 74
0 77 48 112 83 60z m-758 -93 c-8 -27 -20 -57 -27 -67 -12 -16 -108 -53 -108
-41 0 2 9 21 20 41 11 21 20 43 20 50 0 7 8 13 18 13 9 0 23 9 30 20 7 11 18
17 27 14 9 -4 17 1 21 10 14 36 13 7 -1 -40z m-1947 14 c15 -15 16 -41 0 -36
-13 5 -31 48 -20 48 5 0 13 -5 20 -12z m2201 -164 c1 -48 -12 -58 -61 -43 -18
5 -52 9 -75 9 -47 0 -65 15 -29 24 30 7 117 85 136 122 l15 27 7 -49 c3 -27 7
-68 7 -90z m-409 40 c0 -2 -7 -4 -15 -4 -8 0 -15 4 -15 10 0 5 7 7 15 4 8 -4
15 -8 15 -10z m890 -4 c-20 -13 -33 -13 -25 0 3 6 14 10 23 10 15 0 15 -2 2
-10z m-3010 -64 c0 -3 -4 -8 -10 -11 -5 -3 -10 -1 -10 4 0 6 5 11 10 11 6 0
10 -2 10 -4z m160 -16 c0 -5 -4 -10 -10 -10 -5 0 -10 5 -10 10 0 6 5 10 10 10
6 0 10 -4 10 -10z m2180 -21 c19 -6 71 -14 115 -17 l80 -7 0 -142 c0 -79 -4
-144 -9 -145 -5 -2 -10 6 -12 17 -7 48 -40 143 -63 178 -13 21 -53 56 -88 79
-78 51 -81 55 -23 37z m1004 -154 c-3 -8 -12 -11 -20 -8 -15 5 -19 25 -7 36
10 11 32 -13 27 -28z m-599 -35 c15 -6 46 -27 68 -48 23 -20 68 -62 101 -92
34 -31 78 -68 99 -83 46 -35 66 -73 74 -140 l6 -52 -54 50 c-31 28 -102 81
-160 119 -57 38 -116 81 -131 94 -16 14 -28 21 -28 16 0 -6 -25 -28 -56 -49
-31 -22 -83 -66 -116 -98 -47 -46 -63 -56 -70 -46 -11 17 -2 82 17 118 30 57
180 206 222 220 1 1 14 -4 28 -9z m-2904 -87 c5 -67 -3 -179 -17 -242 -15 -66
-50 -148 -60 -138 -2 2 0 59 6 127 5 68 6 151 3 185 -6 62 -5 63 23 73 41 15
44 14 45 -5z m-87 -45 c7 -29 6 -162 -4 -253 -6 -65 -7 -62 -9 50 0 66 -4 144
-7 173 -7 53 8 74 20 30z m-39 -74 c4 -36 7 -116 7 -176 -1 -99 -3 -113 -21
-132 l-21 -20 0 61 c0 50 -22 156 -55 259 -5 16 2 26 32 47 21 14 41 26 44 26
4 1 10 -29 14 -65z m3547 12 c-3 -28 1 -37 21 -51 17 -11 23 -22 20 -35 -3
-12 4 -28 21 -43 14 -13 26 -28 26 -32 0 -16 33 -45 52 -45 11 0 18 -7 18 -20
0 -14 7 -20 22 -20 26 0 18 -8 -43 -43 -41 -23 -48 -25 -72 -12 -14 7 -28 11
-30 9 -12 -12 -47 53 -58 104 -12 61 -27 78 -121 144 -79 54 -59 77 67 78 l81
0 -4 -34z m931 18 c-7 -3 -10 -11 -7 -19 8 -21 -14 -55 -36 -55 -24 0 -25 8
-3 40 19 28 34 40 48 39 6 0 5 -3 -2 -5z m-746 -38 c83 -38 133 -83 160 -143
27 -58 25 -74 -13 -135 -34 -53 -66 -73 -93 -56 -12 7 -21 20 -21 30 0 14 36
61 93 121 24 24 15 33 -15 14 -30 -20 -106 -42 -115 -34 -3 4 2 16 12 27 19
21 19 21 -21 14 -30 -4 -43 -2 -53 10 -13 16 -9 30 10 32 5 1 14 2 19 3 6 0
10 5 10 10 0 6 -18 10 -39 9 -22 0 -44 3 -50 6 -21 14 -11 34 22 41 l32 7 -47
14 c-51 16 -63 27 -54 51 9 22 91 11 163 -21z m-3837 -32 c14 -35 13 -37 -10
-14 -22 22 -26 40 -10 40 6 0 15 -12 20 -26z m-15 -41 c29 -32 65 -121 65
-161 0 -26 -5 -23 -82 50 l-83 77 29 30 c17 17 33 31 37 31 5 0 20 -12 34 -27z
m4059 -15 c-10 -35 -26 -51 -34 -37 -4 6 2 22 13 35 26 30 30 30 21 2z m-4139
-58 c3 -6 -1 -7 -9 -4 -18 7 -21 14 -7 14 6 0 13 -4 16 -10z m28 -51 c32 -22
57 -41 57 -42 0 -4 -152 2 -155 5 -1 2 1 13 6 26 8 22 10 22 38 7 17 -8 32
-11 35 -6 3 5 -8 14 -24 20 -17 5 -30 15 -30 20 0 18 15 12 73 -30z m987 27
c77 -12 110 -27 116 -52 12 -45 -29 -55 -119 -29 -90 25 -331 45 -432 35 -49
-4 -99 -11 -110 -14 -11 -4 -2 3 20 13 78 38 217 59 365 55 74 -2 146 -6 160
-8z m3180 -36 c0 -5 -2 -10 -4 -10 -3 0 -8 5 -11 10 -3 6 -1 10 4 10 6 0 11
-4 11 -10z m-212 -37 c-35 -39 -41 -62 -23 -89 16 -25 57 -32 83 -15 8 5 29
35 48 67 19 33 33 50 30 39 -2 -11 -12 -56 -22 -100 -21 -103 -27 -113 -69
-121 -49 -9 -83 2 -120 39 -25 25 -32 40 -31 69 1 33 9 44 61 87 69 57 79 62
43 24z m-3181 0 c54 -24 73 -43 73 -70 0 -51 -105 -66 -253 -38 -114 22 -278
17 -370 -11 -18 -6 -18 -4 -3 18 9 14 13 28 9 32 -4 4 1 4 11 0 13 -5 17 -4
12 4 -4 8 -2 10 8 6 8 -3 27 1 43 9 26 14 166 51 223 60 74 12 211 6 247 -10z
m-702 -22 c20 -8 19 -9 -142 -40 -40 -8 -43 -7 -43 14 0 12 3 25 7 28 9 10
153 7 178 -2z m55 -56 c0 -14 -66 -72 -162 -143 -63 -46 -68 -48 -68 -28 0 8
33 34 73 60 65 41 137 100 137 112 0 2 -31 -19 -70 -48 -38 -29 -87 -63 -110
-76 l-40 -23 0 34 c0 26 10 42 45 77 37 36 54 45 107 55 64 12 88 6 88 -20z
m-217 -25 c-19 -22 -29 -19 -20 5 4 8 13 15 22 15 13 0 12 -3 -2 -20z m4277
-15 c0 -8 -2 -15 -4 -15 -2 0 -6 7 -10 15 -3 8 -1 15 4 15 6 0 10 -7 10 -15z
m-3417 -55 c4 -16 2 -18 -11 -10 -45 25 -48 30 -21 30 18 0 28 -6 32 -20z m43
-4 c10 -8 15 -18 11 -22 -4 -4 -17 2 -29 14 -25 25 -13 30 18 8z m-950 -53
c-13 -14 -25 9 -13 28 12 20 12 20 15 -1 2 -12 1 -24 -2 -27z"/>
<path d="M2385 3006 c-182 -69 -250 -102 -295 -142 -20 -19 -48 -38 -61 -44
-22 -10 -22 -10 9 -7 17 2 32 2 32 0 0 -1 -18 -14 -41 -29 -44 -28 -47 -40 -6
-25 22 9 25 8 20 -7 -3 -9 -15 -27 -27 -40 l-21 -23 29 11 c27 10 28 10 22
-17 -5 -20 -4 -24 3 -13 11 16 13 15 29 -14 9 -17 10 -15 10 16 0 37 13 70 40
101 21 24 32 21 32 -8 0 -39 38 -131 66 -158 l26 -26 -39 5 c-34 5 -36 4 -20
-9 30 -24 164 -41 240 -29 79 13 127 34 175 79 51 48 32 52 -30 5 -29 -22 -65
-44 -80 -47 -27 -7 -27 -6 11 32 45 45 64 102 55 165 -8 53 -39 118 -67 140
-21 16 -20 17 37 33 85 25 153 17 202 -23 42 -35 67 -43 41 -14 -22 24 -21 31
6 60 l22 25 -22 -12 c-34 -17 -49 -14 -29 8 16 18 16 18 -9 14 -14 -3 -35 1
-47 9 -58 37 -109 30 -314 -47 -137 -50 -214 -85 -264 -117 l-35 -22 19 22
c31 36 303 154 431 187 40 10 44 13 20 14 -16 0 -93 -23 -170 -53z m153 -249
c4 -56 1 -66 -22 -94 -27 -32 -82 -63 -113 -63 -11 0 -5 6 17 18 44 22 73 78
78 156 l5 59 -34 -6 c-19 -3 -43 -8 -54 -12 -16 -6 -15 -3 5 14 64 52 112 23
118 -72z m-250 -84 c24 -19 71 -16 109 9 l35 21 -12 -22 c-6 -13 -28 -29 -47
-38 -57 -23 -107 -2 -118 52 -6 27 -5 28 6 10 6 -11 19 -26 27 -32z m119 -109
c-3 -3 -12 -4 -19 -1 -8 3 -5 6 6 6 11 1 17 -2 13 -5z"/>
<path d="M3270 2395 c0 -10 -13 -34 -28 -54 -49 -62 -48 -67 6 -21 35 30 52
51 50 64 -4 24 -28 34 -28 11z"/>
<path d="M3179 2053 c-12 -15 -12 -16 4 -10 10 4 23 7 28 7 5 0 9 5 9 10 0 16
-26 12 -41 -7z"/>
<path d="M3048 2013 c7 -3 16 -2 19 1 4 3 -2 6 -13 5 -11 0 -14 -3 -6 -6z"/>
<path d="M2880 1980 c0 -5 13 -10 29 -10 17 0 33 5 36 10 4 6 -8 10 -29 10
-20 0 -36 -4 -36 -10z"/>
<path d="M3070 1910 c-12 -8 -11 -10 7 -10 12 0 25 5 28 10 8 13 -15 13 -35 0z"/>
<path d="M2530 4987 c0 -7 15 -22 33 -32 26 -16 50 -20 132 -20 90 0 107 3
165 30 78 36 57 46 -30 14 -49 -18 -73 -21 -130 -16 -39 3 -80 13 -92 21 -27
19 -78 21 -78 3z"/>
<path d="M3365 4990 c11 -5 27 -9 35 -9 9 0 8 4 -5 9 -11 5 -27 9 -35 9 -9 0
-8 -4 5 -9z"/>
<path d="M4983 2828 c-7 -16 -6 -30 4 -48 12 -24 13 -23 13 23 0 53 -3 57 -17
25z"/>
<path d="M3401 225 c-58 -14 -81 -34 -81 -72 0 -35 -34 -97 -70 -127 -19 -15
-26 -26 -17 -26 8 0 29 14 46 32 l31 32 0 -32 0 -32 85 0 85 0 0 88 0 87 30
-50 c19 -32 30 -64 30 -88 0 -23 4 -36 10 -32 15 9 12 60 -5 103 -17 40 -77
133 -85 131 -3 0 -29 -7 -59 -14z"/>
<path d="M720 166 c0 -2 24 -18 53 -34 28 -16 80 -53 115 -81 35 -28 70 -51
78 -51 17 0 0 15 -101 92 -78 59 -145 93 -145 74z"/>
<path d="M3923 135 c3 -11 13 -46 22 -77 9 -32 21 -58 27 -58 6 0 7 7 3 18 -4
9 -16 41 -26 71 -18 53 -37 87 -26 46z"/>
<path d="M524 99 c3 -17 6 -47 6 -65 0 -19 5 -34 11 -34 7 0 9 15 4 42 l-6 43
20 -33 c12 -18 21 -37 21 -42 0 -6 5 -10 10 -10 14 0 13 3 -17 64 -32 65 -59
84 -49 35z"/>
</g>
</svg>
